<?xml version="1.0" encoding="UTF-8" standalone="no"?>
<!-- Created with Inkscape (http://www.inkscape.org/) -->

<svg
   xmlns:dc="http://purl.org/dc/elements/1.1/"
   xmlns:cc="http://creativecommons.org/ns#"
   xmlns:rdf="http://www.w3.org/1999/02/22-rdf-syntax-ns#"
   xmlns:svg="http://www.w3.org/2000/svg"
   xmlns="http://www.w3.org/2000/svg"
   xmlns:sodipodi="http://sodipodi.sourceforge.net/DTD/sodipodi-0.dtd"
   xmlns:inkscape="http://www.inkscape.org/namespaces/inkscape"
   width="500"
   height="240"
   id="svg2"
   version="1.1"
   inkscape:version="0.48.4 r9939"
   sodipodi:docname="The Legend of Zelda Majora's Mask Wordmark.svg">
  <title
     id="title4134">The Legend of Zelda Majora's Mask</title>
  <defs
     id="defs4">
    <inkscape:perspective
       id="perspective126"
       inkscape:persp3d-origin="331.5 : 99.333333 : 1"
       inkscape:vp_z="663 : 149 : 1"
       inkscape:vp_y="0 : 1000 : 0"
       inkscape:vp_x="0 : 149 : 1"
       sodipodi:type="inkscape:persp3d" />
  </defs>
  <sodipodi:namedview
     id="base"
     pagecolor="#ffffff"
     bordercolor="#666666"
     borderopacity="1.0"
     inkscape:pageopacity="0.0"
     inkscape:pageshadow="2"
     inkscape:zoom="0.98994949"
     inkscape:cx="193.98427"
     inkscape:cy="135.91824"
     inkscape:document-units="px"
     inkscape:current-layer="layer1"
     showgrid="false"
     inkscape:window-width="1366"
     inkscape:window-height="706"
     inkscape:window-x="-8"
     inkscape:window-y="-8"
     inkscape:window-maximized="1"
     fit-margin-top="0"
     fit-margin-left="0"
     fit-margin-right="0"
     fit-margin-bottom="0" />
  <metadata
     id="metadata7">
    <rdf:RDF>
      <cc:Work
         rdf:about="">
        <dc:format>image/svg+xml</dc:format>
        <dc:type
           rdf:resource="http://purl.org/dc/dcmitype/StillImage" />
        <dc:title>The Legend of Zelda Majora's Mask</dc:title>
      </cc:Work>
    </rdf:RDF>
  </metadata>
  <g
     inkscape:label="Layer 1"
     inkscape:groupmode="layer"
     id="layer1"
     transform="translate(-93.971752,-397.56288)">
    <path
       inkscape:connector-curvature="0"
       d="m 41.963482,725.36677 0.1,0 c 0,0 -0.1,0 -0.1,0 l 0,0 z"
       style="fill:#ca010c"
       id="path12" />
    <text
       xml:space="preserve"
       style="font-size:20.92964363px;fill:#734b87;fill-opacity:1;stroke:#734b87;stroke-width:0.41350576;stroke-linecap:butt;stroke-linejoin:miter;stroke-miterlimit:4;stroke-opacity:1;stroke-dasharray:none"
       x="552.50854"
       y="443.29922"
       id="text2934"
       transform="scale(0.98187411,1.0184605)"><tspan
         sodipodi:role="line"
         id="tspan2936"
         x="552.50854"
         y="443.29922"
         style="fill:#734b87;fill-opacity:1;stroke:#734b87;stroke-width:0.41350576;stroke-miterlimit:4;stroke-opacity:1;stroke-dasharray:none">®</tspan></text>
    <path
       inkscape:connector-curvature="0"
       d="m 498.80964,438.87149 11.55967,14.34177 -28.72586,120.25393 -15.02552,14.48639 42.22232,-0.6508 -9.84712,-11.03954 6.72785,-36.03521 22.56886,0.19283 6.13661,35.26388 -9.60246,12.36526 51.86556,-0.45797 -12.86445,-14.4864 -30.23453,-133.75207 -34.78093,-0.48207 z m 18.59915,53.09432 7.98589,33.40039 -15.09807,-0.57849 7.11218,-32.8219 z"
       style="fill:#734b87;fill-opacity:1"
       id="path4" />
    <path
       inkscape:connector-curvature="0"
       d="m 432.69588,441.20302 -31.42509,-1.36353 11.9644,13.7253 0.15726,121.75894 -16.13494,15.07494 41.74728,-2.16925 c 73.0845,-16.21521 60.90196,-149.99544 -6.30891,-147.0264 z m 5.56322,11.8901 c 24.58792,0.91598 38.55547,100.02683 0.93782,121.98949 L 438.2591,453.09312 z"
       style="fill:#734b87;fill-opacity:1"
       id="path6" />
    <path
       inkscape:connector-curvature="0"
       d="m 121.7241,413.97224 -14.35274,46.18292 37.59439,-34.90233 74.29173,0.86773 -111.07062,199.67604 135.02579,2.5309 12.01114,-38.72455 71.57427,-0.98834 -0.79799,-67.27699 -17.56804,53.02141 -22.03021,-0.0963 0.15727,-52.99424 12.29663,-1.41173 11.87122,15.99804 -0.0815,-46.87128 -12.17408,15.10959 -11.88889,-0.26854 -0.0175,-50.70097 21.45936,-1.50814 18.52913,45.11544 0.55916,-57.55285 -76.4934,0.66111 9.9724,14.68255 0.39609,121.4627 -35.69548,37.66382 -80.89726,0.48215 110.9075,-200.0617 -133.57829,-0.0964 z"
       style="fill:#734b87;fill-opacity:1"
       id="path8" />
    <path
       inkscape:connector-curvature="0"
       d="m 328.22545,440.40382 53.71758,-1.03297 -12.52363,13.04365 0.56501,121.47634 11.81901,-0.37877 17.0147,-54.52964 0.71643,68.5992 -72.1421,-0.28234 15.77978,-13.07108 -0.87371,-122.17194 -14.07307,-11.65245 z"
       style="fill:#734b87;fill-opacity:1"
       id="path10" />
    <path
       inkscape:connector-curvature="0"
       d="m 229.56773,435.07339 -26.29399,59.30919 -10.60145,6.07416 36.89544,-65.38335 z"
       style="fill:#d39eed;fill-opacity:1"
       id="path36" />
    <path
       inkscape:connector-curvature="0"
       d="m 229.5851,434.94265 -36.42351,64.54993 -0.97859,-12.34115 37.4021,-52.20878 z"
       style="fill:#55067c;fill-opacity:1"
       id="path38" />
    <path
       inkscape:connector-curvature="0"
       d="m 330.89893,435.47285 c 17.77783,1.25339 35.55565,0.0964 53.33347,0.57849 -1.71255,2.02472 -3.50663,4.14585 -5.87158,5.0136 -15.33133,-0.28925 -30.74421,-0.19284 -46.07554,-0.0964 -0.32621,-0.0964 -0.89705,-0.38566 -1.1417,-0.57848 -0.0815,-1.63906 -0.16309,-3.27813 -0.24465,-4.91718 z"
       style="fill:#d39eed;fill-opacity:1"
       id="path40" />
    <path
       inkscape:connector-curvature="0"
       d="m 384.80325,435.37643 1.37305,5.65427 -13.52395,12.08614 0.48929,118.59077 -5.21917,4.04945 -0.65239,-126.44837 11.09074,-8.24375 6.44243,-5.68851 z"
       style="fill:#55067c;fill-opacity:1"
       id="path42" />
    <path
       inkscape:connector-curvature="0"
       d="m 398.74824,435.95492 c 20.30586,0.48208 40.59153,-2.50679 60.00034,6.17058 l -3.64955,4.62794 c -15.98372,-8.29172 -33.8431,-5.11002 -50.72387,-5.78493 l -9.29666,0.0964 3.66974,-5.11002 z"
       style="fill:#d39eed;fill-opacity:1"
       id="path44" />
    <path
       inkscape:connector-curvature="0"
       d="m 496.99222,436.05134 39.00406,0 -4.07749,4.24227 -37.83902,0 2.91245,-4.24227 z"
       style="fill:#d39eed;fill-opacity:1"
       id="path46" />
    <path
       inkscape:connector-curvature="0"
       d="m 535.99628,436.05134 0.57085,-0.77133 29.03168,134.40289 15.08668,17.25833 -0.32621,4.91718 -58.47108,0.48207 -1.3048,-5.59209 7.58411,-0.38566 44.93385,-0.19283 -11.41694,-11.377 -29.76563,-134.30646 4.07749,-4.4351 z"
       style="fill:#55067c;fill-opacity:1"
       id="path48" />
    <path
       inkscape:connector-curvature="0"
       d="m 330.89893,435.47285 0.24465,4.91718 12.88485,10.60568 -5.62693,1.15698 -7.33946,-5.20643 0,52.35349 -9.37821,0.0964 4.07748,-4.04945 -0.0815,-54.47462 5.21917,-5.39925 z"
       style="fill:#55067c;fill-opacity:1"
       id="path50" />
    <path
       inkscape:connector-curvature="0"
       d="m 395.0785,441.06494 c 3.09888,0 6.19777,-0.0964 9.29666,-0.0964 3.34354,4.14586 7.42102,7.32757 11.0092,11.18418 -1.87564,1.44623 -3.83283,2.60321 -6.03467,3.1817 -4.64833,-5.01359 -9.45976,-9.54511 -14.27119,-14.26945 z"
       style="fill:#55067c;fill-opacity:1"
       id="path52" />
    <path
       inkscape:connector-curvature="0"
       d="m 494.58073,440.29361 7.3278,0 10.60145,12.6304 -5.40561,0.37876 -12.52364,-13.00916 z"
       style="fill:#55067c;fill-opacity:1"
       id="path54" />
    <path
       inkscape:connector-curvature="0"
       d="m 507.30248,453.59892 5.2075,-0.67491 -28.95011,121.9653 -12.6402,11.08776 -7.82876,6.36341 -0.89705,-5.6885 17.61472,-15.90852 27.4939,-117.14454 z"
       style="fill:#d39eed;fill-opacity:1"
       id="path56" />
    <path
       inkscape:connector-curvature="0"
       d="m 455.09903,446.75344 3.6784,-4.53494 c 25.60659,12.72682 33.99754,48.5967 31.71415,78.77469 -0.57085,14.94436 -3.18043,30.17797 -10.1937,42.90478 -10.43835,20.72929 -32.13056,28.63534 -51.53937,28.24968 -57.0032,0.38566 -114.00641,-0.0964 -171.09116,0.19283 l -11.49849,38.75891 -141.24399,0 -2.85423,-5.59208 139.22814,0.86778 12.98419,-40.62517 71.55989,0.32357 0,-63.152 5.46382,-4.4351 -0.24464,61.8986 -1.22325,5.90061 68.5017,-0.1157 0,-62.66992 5.46382,-5.97774 0,59.77746 -2.28339,9.15945 39.63313,-0.77132 c 17.85938,-1.83189 34.65859,-16.39059 39.55158,-37.11988 9.05201,-34.80591 6.60552,-85.13468 -25.6066,-101.81451 z"
       style="fill:#55067c;fill-opacity:1"
       id="path58" />
    <path
       inkscape:connector-curvature="0"
       d="m 284.41563,449.45306 25.64146,-0.007 -3.94925,4.73129 -16.22837,0 -0.16311,0.77132 0,46.95424 -5.05607,4.4351 -0.24466,-56.885 z"
       style="fill:#55067c;fill-opacity:1"
       id="path60" />
    <path
       inkscape:connector-curvature="0"
       d="m 309.69603,449.35664 16.06528,45.99008 -4.07748,4.04945 -0.24466,0.19282 -15.33133,-45.41158 3.58819,-4.82077 z"
       style="fill:#d39eed;fill-opacity:1"
       id="path62" />
    <path
       inkscape:connector-curvature="0"
       d="m 434.79318,449.45306 c 24.87263,4.62793 30.82576,40.78366 30.82576,65.56238 -0.57085,23.91099 -6.19776,58.71689 -30.01026,63.24841 l 5.21917,-7.13473 c 6.93172,-2.69963 10.27526,-11.377 13.04794,-18.70456 8.39962,-26.61061 8.39962,-58.04198 -2.28339,-83.78486 -2.52803,-5.11001 -5.62692,-10.89493 -10.8461,-12.43758 l -5.95312,-6.74906 z"
       style="fill:#d39eed;fill-opacity:1"
       id="path64" />
    <path
       inkscape:connector-curvature="0"
       d="m 435.20093,449.93514 5.54537,6.26698 0.0815,114.927 -4.72988,6.45982 -0.89704,-127.6538 z"
       style="fill:#55067c;fill-opacity:1"
       id="path68" />
    <path
       inkscape:connector-curvature="0"
       d="m 344.02843,450.99571 0.81549,123.79719 -14.76049,11.56983 0.97861,-5.97774 8.31805,-7.52039 -0.97859,-120.71191 5.62693,-1.15698 z"
       style="fill:#d39eed;fill-opacity:1"
       id="path70" />
    <path
       inkscape:connector-curvature="0"
       d="m 409.34969,455.33439 6.03467,-3.1817 -0.0815,125.14701 -13.78189,9.15945 2.28339,-9.15945 6.19777,-3.66378 -0.65239,-118.30153 z"
       style="fill:#d39eed;fill-opacity:1"
       id="path74" />
    <path
       inkscape:connector-curvature="0"
       d="m 258.2382,454.37024 5.21918,-1.54264 -0.0815,124.56852 -38.08368,36.25209 -80.89725,0.48215 0.24465,-1.06056 8.97046,-5.01368 70.29579,0.19286 34.49551,-34.32381 -0.16311,-119.55493 z"
       style="fill:#d39eed;fill-opacity:1"
       id="path76" />
    <path
       inkscape:connector-curvature="0"
       d="m 518.05536,481.55934 10.1937,46.18291 -21.6922,0 6.60552,-5.49567 8.88892,0.57849 -4.40369,-19.28305 0.40775,-21.98268 z"
       style="fill:#d39eed;fill-opacity:1"
       id="path82" />
    <path
       inkscape:connector-curvature="0"
       d="m 518.05536,482.61991 -0.40775,20.92211 -4.48523,18.70456 -6.27933,5.48188 11.17231,-45.10855 z"
       style="fill:#55067c;fill-opacity:1"
       id="path84" />
    <path
       inkscape:connector-curvature="0"
       d="m 310.10378,484.06614 5.38227,2.12113 -6.03468,6.74907 -9.78595,13.98022 -15.00513,-0.5785 5.05607,-4.4351 7.91032,0.0964 12.4771,-17.93324 z"
       style="fill:#d39eed;fill-opacity:1"
       id="path86" />
    <path
       inkscape:connector-curvature="0"
       d="m 309.45137,492.93634 c 1.7941,-2.5068 3.91439,-4.62793 6.03468,-6.74907 0,17.54758 0.0816,35.09516 0,52.64274 -0.0815,0.28924 -0.3262,0.77132 -0.40775,1.06056 -0.73395,0.28925 -1.54944,0.5785 -2.36494,0.86775 -1.38634,0.48207 -2.77268,0.77132 -4.15903,1.15698 -3.66973,-6.36341 -7.42102,-12.6304 -11.09075,-18.99381 -2.44648,-0.0964 -4.81143,-0.0964 -7.25792,-0.0964 l -0.89705,0 c 0,16.19777 0.16311,32.39554 0,48.5933 -1.71254,1.63906 -3.42508,3.1817 -5.05607,4.82076 -0.0815,-19.86154 -0.0815,-39.72309 -0.0815,-59.48822 4.97452,0.0964 9.94905,0.0964 14.92358,0 4.07748,4.72435 6.85017,10.60568 10.43835,15.71569 0.0815,-13.20889 0.16311,-26.41778 -0.0815,-39.53026 z"
       style="fill:#55067c;fill-opacity:1"
       id="path88" />
    <path
       inkscape:connector-curvature="0"
       d="m 175.70996,515.78676 10.92765,-5.11001 0.89705,11.56983 -10.19371,4.91718 -1.63099,-11.377 z"
       style="fill:#55067c;fill-opacity:1"
       id="path90" />
    <path
       inkscape:connector-curvature="0"
       d="m 394.50765,517.9079 9.15087,-0.30971 -5.31803,5.90179 -15.82064,52.83557 -14.92358,0.0964 5.54537,-4.72435 5.79003,-0.38566 15.57598,-53.41405 z"
       style="fill:#d39eed;fill-opacity:1"
       id="path92" />
    <path
       inkscape:connector-curvature="0"
       d="m 321.84692,518.87205 9.20344,-0.0895 -5.2075,4.13891 -15.73908,53.41406 -25.85124,0 0,-0.0964 5.05607,-4.82076 17.77783,-0.28925 14.76048,-52.25707 z"
       style="fill:#d39eed;fill-opacity:1"
       id="path94" />
    <path
       inkscape:connector-curvature="0"
       d="m 177.34095,527.16376 4.24059,-7.71321 5.62693,3.08528 -10.19371,5.20642 0.32619,-0.57849 z"
       style="fill:#d39eed;fill-opacity:1"
       id="path96" />
    <path
       inkscape:connector-curvature="0"
       d="m 504.51812,537.96227 25.44349,0.19283 -4.15903,5.0136 -17.37008,0.28924 -7.01326,32.10628 11.33961,11.39405 -1.39056,4.80372 -48.27738,0.57849 7.82876,-6.36341 34.57705,0.19283 -9.37821,-8.48454 8.39961,-39.72309 z"
       style="fill:#55067c;fill-opacity:1"
       id="path98" />
    <path
       inkscape:connector-curvature="0"
       d="m 529.96161,538.1551 0.1631,0.77133 6.93172,38.18044 -9.12773,9.25586 -7.36281,0.38566 11.08492,-11.46651 -5.84823,-32.11318 4.15903,-5.0136 z"
       style="fill:#d39eed;fill-opacity:1"
       id="path100" />
    <path
       inkscape:connector-curvature="0"
       d="m 160.05243,545.38625 11.17231,-4.72435 0,10.50926 -38.08368,53.31764 26.91137,-59.10255 z"
       style="fill:#55067c;fill-opacity:1"
       id="path102" />
    <path
       inkscape:connector-curvature="0"
       d="m 165.59781,548.2787 5.79002,3.27812 -37.20997,52.03682 31.41995,-55.31494 z"
       style="fill:#d39eed;fill-opacity:1"
       id="path104" />
    <path
       inkscape:connector-curvature="0"
       d="m 117.64662,407.416 c 47.95119,-0.48207 96.06548,0.48208 143.93512,-0.57848 l -0.65241,0.6749 c -1.87563,2.12114 -3.58818,4.53151 -5.62691,6.55624 -44.52611,-0.28925 -89.05221,-0.0964 -133.57832,-0.0964 -4.64833,15.42645 -9.70441,30.66006 -14.35274,46.18292 -2.60959,2.98887 -5.54537,5.39925 -8.399609,7.90605 6.034679,-20.34363 12.803299,-40.30158 18.674869,-60.64521 z"
       style="fill:#d39eed;fill-opacity:1"
       id="path106" />
    <path
       inkscape:connector-curvature="0"
       d="m 255.30242,414.06866 5.62691,-6.55624 2.03875,6.26699 -13.66533,24.04863 14.11378,15.14763 -5.17833,1.39457 -11.4985,-11.56984 -93.12969,165.25572 -8.97046,5.01368 110.66287,-199.00114 z"
       style="fill:#55067c;fill-opacity:1"
       id="path108" />
    <path
       inkscape:connector-curvature="0"
       d="m 144.96575,425.25283 74.29173,0.86773 -8.97047,4.72436 -63.85336,-0.0964 -43.79217,41.55498 -3.669729,-4.24227 45.993999,-42.80838 z"
       style="fill:#55067c;fill-opacity:1"
       id="path110" />
    <path
       inkscape:connector-curvature="0"
       d="m 219.99142,425.83132 -111.80456,199.96528 -6.11622,0 108.21637,-194.95168 9.70441,-5.0136 z"
       style="fill:#d39eed;fill-opacity:1"
       id="path112" />
    <path
       inkscape:connector-curvature="0"
       d="m 248.45224,439.32946 c 0.73395,-1.2534 1.54944,-2.5068 2.2834,-3.7602 26.50363,1.06057 53.08881,0 79.59244,0.48208 -1.54944,1.63906 -3.09889,3.27812 -4.64832,4.82076 -24.38335,0.0964 -48.76669,-0.0964 -73.15004,0.0964 -1.38633,-0.48207 -2.77268,-1.06056 -4.07748,-1.63905 z"
       style="fill:#d39eed;fill-opacity:1"
       id="path114" />
    <g
       transform="scale(0.98338561,1.0168951)"
       style="font-size:28.49503136px;font-style:normal;font-variant:normal;font-weight:normal;font-stretch:normal;line-height:125%;letter-spacing:0px;word-spacing:0px;fill:#000000;fill-opacity:1;stroke:none;font-family:Charlemagne;-inkscape-font-specification:Charlemagne"
       id="text3028">
      <path
         d="m 286.84914,403.10458 c 0.24581,-2.75487 0.36871,-4.83495 0.36871,-6.24025 l 0,-0.76524 c 0.0371,0.0186 0.22726,0.0464 0.57046,0.0835 0,0.81628 0.058,1.45399 0.17392,1.91312 1.82268,0.11132 4.82337,0.20408 9.00209,0.27827 3.20939,-0.0556 6.53242,-0.14839 9.96909,-0.27827 0.0417,-0.0788 0.11824,-0.36406 0.22957,-0.85569 0.11593,-0.49623 0.19245,-0.8116 0.22958,-0.94612 0.19013,-0.0742 0.371,-0.11129 0.54263,-0.11131 -0.17163,0.77918 -0.3525,2.02444 -0.54263,3.7358 -0.19018,1.7253 -0.32235,2.85462 -0.39654,3.38796 -0.11597,-0.0185 -0.28757,-0.0649 -0.5148,-0.13914 0.0185,-0.34319 0.0371,-0.66784 0.0557,-0.97395 -2e-5,-0.2829 -2e-5,-0.69103 0,-1.2244 l 0,-0.93917 c -0.43598,-0.24578 -1.18499,-0.44521 -2.24704,-0.59828 -1.08528,-0.15303 -2.15894,-0.25738 -3.221,-0.31306 -1.08527,-0.0556 -1.96878,-0.0835 -2.65054,-0.0835 -0.0186,0.58903 -0.0371,1.60472 -0.0557,3.04708 -0.0418,1.46094 -0.0812,3.30449 -0.11827,5.53065 0.0788,5.20369 0.13681,8.47106 0.17392,9.80213 1.38671,0.16696 2.6111,0.28986 3.67319,0.36871 l 0.11826,0.45219 c -0.19016,-0.0186 -0.57974,-0.0371 -1.16874,-0.0557 -0.60757,0 -1.28238,-0.009 -2.02442,-0.0278 -0.74207,0 -1.34963,-0.009 -1.82268,-0.0278 -0.45916,0.0186 -1.04817,0.0278 -1.76703,0.0278 -0.74207,0.0186 -1.41687,0.0278 -2.02443,0.0278 -0.60756,0.0186 -1.0157,0.0371 -1.22439,0.0557 l 0.16696,-0.45219 c 2.12877,-0.19016 3.33461,-0.31306 3.61753,-0.36871 0.0788,-2.62503 0.11826,-6.00835 0.11827,-10.14997 -10e-6,-3.47374 -0.0394,-6.21704 -0.11827,-8.22989 -4.32713,0.0557 -7.01477,0.38728 -8.06292,0.99482 -0.0928,0.24583 -0.28291,1.21514 -0.57046,2.90795 -0.28291,0.0742 -0.44292,0.12987 -0.48002,0.16696 z"
         style=""
         id="path3083" />
      <path
         d="m 309.45177,398.52005 -0.22958,-0.42436 c 0.77916,0.0186 1.49107,0.0278 2.13574,0.0278 0.63075,0.0186 1.30555,0.0464 2.02443,0.0835 2.47197,-0.0742 3.95377,-0.11128 4.44539,-0.1113 l -0.0835,0.42436 c -0.77917,0.0557 -1.72993,0.18785 -2.85229,0.39654 -0.11131,1.90154 -0.16697,4.64715 -0.16696,8.23684 1.36816,10e-6 2.66908,0.0186 3.90276,0.0557 0.589,-0.0185 1.48179,-0.0371 2.67837,-0.0557 1.178,10e-6 2.40239,-0.009 3.67318,-0.0278 1.25685,1e-5 2.25399,-0.009 2.99143,-0.0278 l 0,-3.56188 c -2e-5,-1.178 -0.0557,-2.71777 -0.16697,-4.61931 -1.17803,-0.22724 -2.12879,-0.35942 -2.85228,-0.39654 l -0.0835,-0.42436 c 0.77914,0.0186 1.50033,0.0278 2.16356,0.0278 0.64928,0.0186 1.42844,0.0464 2.33748,0.0835 0.98784,-0.0371 1.74845,-0.0649 2.28183,-0.0835 0.53333,2e-5 1.12234,-0.009 1.76703,-0.0278 l -0.17392,0.39653 c -0.51019,0.0742 -0.93688,0.12988 -1.28005,0.16697 -0.34323,0.0603 -0.89513,0.14611 -1.65572,0.2574 -0.0742,1.80414 -0.14843,4.49178 -0.22262,8.06292 0.0185,0.82091 0.0464,2.00937 0.0835,3.56536 0.0371,1.55601 0.0742,2.80011 0.11131,3.73232 0.0185,0.95077 0.0487,1.9966 0.0904,3.13752 0.96465,0.14841 1.55134,0.22261 1.76007,0.22261 0.19013,0.0186 0.56116,0.0673 1.11309,0.1461 l 0.17392,0.45219 c -0.58904,0 -1.85285,-0.0371 -3.79146,-0.11131 -2.4117,0.0742 -4.0164,0.13218 -4.8141,0.17392 l 0.13914,-0.5148 c 0.45913,-0.0557 1.40989,-0.17856 2.85228,-0.36871 0.11129,-1.15947 0.16695,-4.31321 0.16697,-9.46125 l -0.99483,0 c -0.93222,10e-6 -1.93864,0.0186 -3.01924,0.0557 -1.10383,0.0557 -2.54852,0.12291 -4.33409,0.20175 -1.80414,0.0742 -3.43666,0.12987 -4.89758,0.16696 0.0185,0.85337 0.0371,2.30734 0.0557,4.36191 0.0186,2.04994 0.0765,3.60826 0.17392,4.67497 1.47947,0.22725 2.40936,0.35015 2.78968,0.36871 l 0.0835,0.5148 c -0.77917,-0.0417 -2.10792,-0.0997 -3.98624,-0.17392 -2.39314,0.0742 -3.91436,0.11131 -4.56366,0.11131 l 0.17392,-0.45219 c 1.29396,-0.1345 2.2911,-0.25741 2.99142,-0.36871 0.0788,-4.33176 0.11826,-7.42058 0.11827,-9.26646 -1e-5,-3.00068 -0.058,-6.0779 -0.17392,-9.23166 -0.49626,-0.17158 -1.47485,-0.30376 -2.93577,-0.39654 z"
         style=""
         id="path3085" />
      <path
         d="m 339.65817,398.91659 c -0.45915,-0.11129 -0.93453,-0.19709 -1.42614,-0.2574 -0.51481,-0.0556 -1.01801,-0.10202 -1.50963,-0.13914 l -0.17392,-0.42436 c 0.89511,0.0371 2.88011,0.0928 5.95502,0.16696 3.20939,-0.0556 5.4889,-0.15071 6.83853,-0.28523 l 0.22957,-1.3357 0.42437,-0.11827 c -0.16698,1.65574 -0.28988,2.94738 -0.36871,3.87494 -0.0742,0.93222 -0.12988,1.60703 -0.16696,2.02442 l -0.45915,-0.22957 0,-2.05226 c -2e-5,2e-5 -2e-5,2e-5 0,0 -2e-5,-0.41739 -0.88353,-0.74899 -2.65054,-0.99482 -1.78559,-0.22723 -3.16303,-0.34086 -4.13234,-0.34088 -0.15305,2.48591 -0.22958,5.30573 -0.22957,8.45946 2.88938,10e-6 4.99033,-0.15999 6.30285,-0.48002 l 0.28523,-1.22439 0.42437,-0.0626 c -0.0928,0.57046 -0.2064,1.4076 -0.34089,2.5114 -0.15306,1.12237 -0.27596,2.02443 -0.36871,2.70619 l -0.40349,-0.22957 c 0.0185,-0.32001 0.0371,-0.61451 0.0557,-0.88352 -1e-5,-0.26434 -1e-5,-0.59595 0,-0.99482 -0.79772,-0.47305 -2.62967,-0.70958 -5.49586,-0.70959 l -0.45915,0 c -10e-6,0.39887 -0.0186,0.76758 -0.0557,1.10613 0.0186,0.87656 0.0673,2.21691 0.1461,4.02103 0.0556,1.80413 0.0835,3.28593 0.0835,4.44539 4.1416,0 6.59271,-0.3803 7.35333,-1.14091 -10e-6,-0.0557 0.0649,-0.37799 0.19479,-0.967 0.13448,-0.589 0.22956,-1.09221 0.28523,-1.50962 l 0.63307,-0.22958 c -0.17162,0.68177 -0.37337,1.79254 -0.60524,3.33231 -0.22727,1.53977 -0.35945,2.63198 -0.39654,3.27665 l -0.45219,-0.11131 -0.0626,-1.60006 c -0.26438,-0.19016 -2.58099,-0.32234 -6.94984,-0.39654 -3.19086,0.0742 -5.04368,0.13218 -5.55848,0.17392 l 0.11826,-0.5148 c 1.34498,-0.11595 2.34212,-0.23885 2.99143,-0.36871 0.0742,-3.26969 0.1113,-6.55794 0.11131,-9.86474 -10e-6,-3.24649 -0.0557,-6.12428 -0.16697,-8.63338 z"
         style=""
         id="path3087" />
      <path
         d="m 375.65959,416.07204 c 0.47768,-1.38671 0.81161,-2.49748 1.00178,-3.3323 l 0.57045,-0.11827 c -0.30611,0.96932 -0.62148,2.46271 -0.94612,4.48018 -0.32003,2.03138 -0.51018,3.59666 -0.57046,4.69584 l -0.53567,-0.16697 c 0.0927,-0.83482 0.13912,-1.94558 0.13914,-3.3323 -1.08064,0 -1.75545,-0.0116 -2.02443,-0.0348 -0.26437,0 -1.10846,-0.0186 -2.53227,-0.0557 -1.44703,-0.0186 -2.81519,-0.0464 -4.10451,-0.0835 -0.62612,0.0186 -1.20585,0.0278 -1.7392,0.0278 -0.53336,0.0186 -1.08526,0.0464 -1.65572,0.0835 l 0.11827,-0.45219 c 1.84122,-0.20871 2.83836,-0.33161 2.99142,-0.36871 0.11594,-3.8216 0.17391,-7.03332 0.17392,-9.63517 -1e-5,-2.12876 -0.0116,-3.75201 -0.0348,-4.86975 -0.0186,-1.12235 -0.0649,-2.45341 -0.13913,-3.9932 -0.64467,-0.12984 -1.66036,-0.26202 -3.04708,-0.39654 l -0.0626,-0.42436 c 0.63075,0.0186 1.31483,0.0464 2.05225,0.0835 0.72351,0.0371 1.28469,0.065 1.68355,0.0835 0.95075,-0.0371 1.72992,-0.0649 2.33748,-0.0835 0.589,-0.0185 1.07366,-0.0371 1.45397,-0.0557 0.3803,-0.0185 0.87423,-0.0278 1.4818,-0.0278 l -0.17392,0.42436 c -0.49162,0.0557 -1.03193,0.12292 -1.62093,0.20175 -0.58902,0.0742 -1.14093,0.13915 -1.65572,0.19479 -0.0186,0.22727 -0.0371,0.99716 -0.0557,2.30965 -0.0371,1.31253 -0.0742,3.10739 -0.11131,5.38456 0.0371,4.12307 0.0742,6.96376 0.11131,8.52208 0.0185,1.55832 0.0371,2.33748 0.0557,2.33748 3.74274,-0.0788 6.02225,-0.54495 6.83853,-1.39832 z"
         style=""
         id="path3089" />
      <path
         d="m 382.40072,398.91659 c -0.45915,-0.11129 -0.93453,-0.19709 -1.42614,-0.2574 -0.51481,-0.0556 -1.01801,-0.10202 -1.50963,-0.13914 l -0.17392,-0.42436 c 0.89511,0.0371 2.88011,0.0928 5.95502,0.16696 3.20939,-0.0556 5.4889,-0.15071 6.83853,-0.28523 l 0.22957,-1.3357 0.42437,-0.11827 c -0.16698,1.65574 -0.28988,2.94738 -0.36871,3.87494 -0.0742,0.93222 -0.12988,1.60703 -0.16696,2.02442 l -0.45915,-0.22957 0,-2.05226 c -2e-5,2e-5 -2e-5,2e-5 0,0 -2e-5,-0.41739 -0.88353,-0.74899 -2.65054,-0.99482 -1.78559,-0.22723 -3.16303,-0.34086 -4.13234,-0.34088 -0.15305,2.48591 -0.22958,5.30573 -0.22957,8.45946 2.88938,10e-6 4.99033,-0.15999 6.30285,-0.48002 l 0.28523,-1.22439 0.42437,-0.0626 c -0.0928,0.57046 -0.2064,1.4076 -0.34089,2.5114 -0.15306,1.12237 -0.27596,2.02443 -0.36871,2.70619 l -0.40349,-0.22957 c 0.0185,-0.32001 0.0371,-0.61451 0.0557,-0.88352 -1e-5,-0.26434 -1e-5,-0.59595 0,-0.99482 -0.79772,-0.47305 -2.62967,-0.70958 -5.49586,-0.70959 l -0.45915,0 c -10e-6,0.39887 -0.0186,0.76758 -0.0557,1.10613 0.0186,0.87656 0.0673,2.21691 0.1461,4.02103 0.0556,1.80413 0.0835,3.28593 0.0835,4.44539 4.1416,0 6.59271,-0.3803 7.35333,-1.14091 -1e-5,-0.0557 0.0649,-0.37799 0.19479,-0.967 0.13448,-0.589 0.22956,-1.09221 0.28523,-1.50962 l 0.63307,-0.22958 c -0.17162,0.68177 -0.37337,1.79254 -0.60524,3.33231 -0.22727,1.53977 -0.35945,2.63198 -0.39654,3.27665 l -0.45219,-0.11131 -0.0626,-1.60006 c -0.26438,-0.19016 -2.58099,-0.32234 -6.94984,-0.39654 -3.19086,0.0742 -5.04368,0.13218 -5.55848,0.17392 l 0.11826,-0.5148 c 1.34498,-0.11595 2.34212,-0.23885 2.99143,-0.36871 0.0742,-3.26969 0.1113,-6.55794 0.11131,-9.86474 -1e-5,-3.24649 -0.0557,-6.12428 -0.16697,-8.63338 z"
         style=""
         id="path3091" />
      <path
         d="m 412.39842,409.317 c 0.53334,0.0186 1.04582,0.0278 1.53745,0.0278 0.47305,0.0232 1.22438,0.0533 2.25401,0.0904 1.06204,-0.0371 1.87831,-0.0672 2.44879,-0.0904 0.57043,10e-6 1.17799,-0.009 1.82268,-0.0278 l -0.17392,0.5148 c -0.62614,0.0557 -1.4424,0.16929 -2.44879,0.34088 -0.0186,0.13451 -0.065,1.34035 -0.13914,3.61753 0.0556,1.33107 0.0835,2.64359 0.0835,3.93755 -2.6807,0.60756 -5.17819,0.91134 -7.49247,0.91134 -1.25687,0 -2.50214,-0.0951 -3.7358,-0.28523 -2.81055,-0.5148 -4.97643,-1.64644 -6.49764,-3.39491 -1.53514,-1.74384 -2.36995,-3.68942 -2.50445,-5.83675 -0.0186,-0.22725 -0.0278,-0.45682 -0.0278,-0.68873 0,-1.27076 0.26436,-2.5624 0.79308,-3.87493 0.63075,-1.55831 1.66731,-2.93575 3.10969,-4.13234 1.44236,-1.19655 3.24649,-1.99426 5.41238,-2.39314 1.25221,-0.14839 2.30733,-0.22259 3.16534,-0.22261 2.18442,2e-5 4.34103,0.22727 6.46982,0.68176 0.11129,-0.55188 0.20637,-1.00871 0.28523,-1.37049 0.0556,-0.33854 0.12057,-0.7745 0.19479,-1.30787 l 0.51481,-0.11827 c -0.24583,2.41635 -0.39888,4.79093 -0.45915,7.12376 0.0417,0.23191 0.0626,0.54728 0.0626,0.94612 l -0.48698,-0.17392 c -0.0186,-0.22724 -0.0371,-0.46377 -0.0557,-0.70959 -0.0371,-0.23188 -0.065,-0.46145 -0.0835,-0.68872 -0.0418,-0.22724 -0.0719,-0.46377 -0.0904,-0.70959 -0.0371,-0.24579 -0.0742,-0.46377 -0.11131,-0.65394 -0.74208,-0.58899 -1.81574,-1.10148 -3.221,-1.53746 -1.42384,-0.44057 -2.87781,-0.66087 -4.36191,-0.66089 -1.57688,2e-5 -3.03781,0.3525 -4.38278,1.05743 -1.36817,0.72353 -2.46271,1.72067 -3.2836,2.99142 -0.83482,1.27079 -1.26151,2.70389 -1.28005,4.2993 -10e-6,0.0417 -10e-6,0.0812 0,0.11827 -10e-6,2.01284 0.53334,3.83552 1.60006,5.46804 1.06206,1.67427 2.40008,2.96592 4.01407,3.87493 1.53976,0.87656 3.41113,1.34267 5.61413,1.39832 1.80411,-0.0557 3.30446,-0.33161 4.50105,-0.82786 0.0371,-0.51016 0.0556,-1.77398 0.0557,-3.79145 -2e-5,-1.63252 -0.0186,-2.64821 -0.0557,-3.04708 -0.43598,-0.0556 -0.90209,-0.12057 -1.39832,-0.19479 -0.51018,-0.0603 -1.00411,-0.10898 -1.4818,-0.14609 z"
         style=""
         id="path3093" />
      <path
         d="m 426.14505,398.91659 c -0.45915,-0.11129 -0.93453,-0.19709 -1.42614,-0.2574 -0.51481,-0.0556 -1.01801,-0.10202 -1.50962,-0.13914 l -0.17392,-0.42436 c 0.8951,0.0371 2.8801,0.0928 5.95501,0.16696 3.20939,-0.0556 5.4889,-0.15071 6.83853,-0.28523 l 0.22958,-1.3357 0.42436,-0.11827 c -0.16698,1.65574 -0.28988,2.94738 -0.36871,3.87494 -0.0742,0.93222 -0.12987,1.60703 -0.16696,2.02442 l -0.45915,-0.22957 0,-2.05226 c -2e-5,2e-5 -2e-5,2e-5 0,0 -2e-5,-0.41739 -0.88353,-0.74899 -2.65054,-0.99482 -1.78559,-0.22723 -3.16303,-0.34086 -4.13234,-0.34088 -0.15305,2.48591 -0.22958,5.30573 -0.22957,8.45946 2.88938,10e-6 4.99033,-0.15999 6.30286,-0.48002 l 0.28522,-1.22439 0.42437,-0.0626 c -0.0928,0.57046 -0.2064,1.4076 -0.34088,2.5114 -0.15307,1.12237 -0.27597,2.02443 -0.36871,2.70619 l -0.4035,-0.22957 c 0.0185,-0.32001 0.0371,-0.61451 0.0557,-0.88352 -2e-5,-0.26434 -2e-5,-0.59595 0,-0.99482 -0.79773,-0.47305 -2.62968,-0.70958 -5.49587,-0.70959 l -0.45915,0 c -10e-6,0.39887 -0.0186,0.76758 -0.0556,1.10613 0.0185,0.87656 0.0672,2.21691 0.14609,4.02103 0.0557,1.80413 0.0835,3.28593 0.0835,4.44539 4.1416,0 6.59271,-0.3803 7.35333,-1.14091 -1e-5,-0.0557 0.0649,-0.37799 0.19479,-0.967 0.13448,-0.589 0.22956,-1.09221 0.28523,-1.50962 l 0.63307,-0.22958 c -0.17162,0.68177 -0.37336,1.79254 -0.60524,3.33231 -0.22727,1.53977 -0.35945,2.63198 -0.39654,3.27665 l -0.45219,-0.11131 -0.0626,-1.60006 c -0.26437,-0.19016 -2.58098,-0.32234 -6.94984,-0.39654 -3.19085,0.0742 -5.04368,0.13218 -5.55848,0.17392 l 0.11827,-0.5148 c 1.34497,-0.11595 2.34211,-0.23885 2.99142,-0.36871 0.0742,-3.26969 0.1113,-6.55794 0.11131,-9.86474 -1e-5,-3.24649 -0.0557,-6.12428 -0.16697,-8.63338 z"
         style=""
         id="path3095" />
      <path
         d="m 441.2413,418.23561 0.11131,-0.45219 c 0.22725,-0.0371 0.55886,-0.0858 0.99482,-0.1461 0.44059,-0.0557 0.93452,-0.12986 1.4818,-0.22261 0.25044,-1.14092 0.48001,-7.2884 0.68872,-18.44247 -0.11595,-0.0371 -0.64931,-0.10201 -1.60006,-0.19479 -0.94613,-0.0974 -1.46789,-0.14607 -1.56528,-0.14609 l -0.11131,-0.42437 c 3.01924,-0.0742 4.92772,-0.15071 5.72544,-0.22957 1.12236,1.52124 2.25167,3.01231 3.38796,4.47322 1.1409,1.48413 2.56704,3.27898 4.27843,5.38456 1.68816,2.12879 3.083,3.87726 4.18451,5.24542 1.10147,1.36818 1.71019,2.15661 1.82616,2.36531 l 0.0557,0 c -2e-5,-9.17368 -0.12292,-14.68346 -0.36871,-16.52934 -1.00643,-0.20869 -2.07082,-0.34087 -3.19317,-0.39654 l -0.1113,-0.42436 c 0.71885,0.0186 1.38438,0.0278 1.9966,0.0278 0.58898,0.0186 1.3009,0.0464 2.13573,0.0835 0.909,-0.0371 1.59309,-0.0649 2.05226,-0.0835 0.45448,2e-5 0.95769,-0.009 1.50962,-0.0278 l -0.11826,0.42436 c -1.00644,0.15307 -1.78329,0.28525 -2.33053,0.39654 -0.15307,0.83947 -0.26902,2.37924 -0.34784,4.61931 -0.0928,2.2401 -0.15771,4.56599 -0.19479,6.97766 -0.0418,2.43489 -0.0905,5.61878 -0.14609,9.55168 -0.83484,-1.08526 -2.15431,-2.75721 -3.95842,-5.01585 -1.80414,-2.26327 -3.11434,-3.89811 -3.93059,-4.90454 -0.82091,-0.98785 -2.0569,-2.49747 -3.70797,-4.52887 -1.65109,-2.03137 -3.20013,-3.91202 -4.64714,-5.64196 0,2.84766 0.0394,5.96199 0.11827,9.34298 0.0556,3.381 0.15072,6.08024 0.28523,8.09771 0.2829,0.0927 1.41222,0.21566 3.38795,0.36871 l 0.0557,0.45219 c -0.68178,-0.0371 -1.33571,-0.0649 -1.96182,-0.0835 -0.62612,0 -1.3102,-0.009 -2.05225,-0.0278 -0.70496,0.0186 -1.35194,0.0278 -1.94095,0.0278 -0.60756,0.0186 -1.27077,0.0464 -1.98964,0.0835 z"
         style=""
         id="path3097" />
      <path
         d="m 470.9468,398.91659 c -1.04816,-0.20869 -2.0453,-0.34087 -2.99142,-0.39654 l -0.0626,-0.42436 c 1.17801,2e-5 2.54618,0.0371 4.10451,0.1113 4.03029,-0.0742 6.4814,-0.11128 7.35333,-0.1113 4.04884,0.12988 7.01243,0.88817 8.89078,2.27487 0.74204,0.53337 1.32177,1.1131 1.7392,1.7392 0.39883,0.62612 0.70261,1.2731 0.91134,1.94094 0.20868,0.68178 0.31303,1.27079 0.31306,1.76703 -3e-5,0.0928 -3e-5,0.17625 0,0.25044 -3e-5,3.00535 -0.96934,5.54226 -2.90794,7.61074 -1.28935,1.38672 -2.78042,2.41169 -4.47322,3.0749 -1.6882,0.66785 -3.38797,1.06671 -5.09933,1.19657 -1.71138,0.15305 -3.84016,0.22957 -6.38634,0.22957 -1.04352,0.0371 -2.52532,0.0557 -4.44539,0.0557 l 0.11826,-0.45219 c 1.28933,-0.0557 2.26792,-0.17856 2.93577,-0.36871 0.0557,-0.36176 0.10203,-1.37049 0.13914,-3.02621 0.0185,-1.65107 0.0278,-4.04421 0.0278,-7.17941 0,-2.54618 -0.009,-4.45466 -0.0278,-5.72544 -0.0371,-1.25221 -0.0835,-2.1079 -0.13914,-2.56706 z m 2.5601,0.17392 c -0.0742,1.78559 -0.14842,4.76774 -0.22262,8.94644 0.0742,4.02567 0.14841,6.94056 0.22262,8.74469 1.46556,0.28755 2.74793,0.45915 3.84711,0.5148 1.36816,-0.0371 2.90793,-0.30146 4.61931,-0.79308 2.37457,-0.77915 4.18797,-2.07312 5.44021,-3.88189 1.0064,-1.46092 1.50961,-3.05634 1.50963,-4.78627 -2e-5,-0.35711 -0.0186,-0.72582 -0.0557,-1.10613 -0.38032,-3.19547 -2.07082,-5.41005 -5.0715,-6.64374 -1.78559,-0.77914 -4.2367,-1.16872 -7.35333,-1.16874 -1.06208,2e-5 -2.04067,0.058 -2.93577,0.17392 z"
         style=""
         id="path3099" />
      <path
         d="m 513.96067,397.74785 c 0.38029,-0.0185 0.75132,-0.0278 1.11309,-0.0278 1.91542,2e-5 3.59664,0.3038 5.04367,0.91134 1.70672,0.74208 3.07257,1.78791 4.09756,3.13751 0.57043,0.74208 1.00755,1.58733 1.31135,2.53576 0.30376,0.94845 0.45565,1.97458 0.45567,3.07838 -2e-5,2.6946 -0.91136,5.14571 -2.73402,7.35333 -0.57048,0.70032 -1.30094,1.34498 -2.19139,1.93399 -0.91368,0.58901 -1.94096,1.04584 -3.08186,1.37049 -1.15484,0.33856 -2.34214,0.51944 -3.56188,0.54263 -0.20872,0 -0.41742,0 -0.62611,0 -3.05636,0 -5.55385,-0.81859 -7.49247,-2.45575 -2.20299,-1.89688 -3.3323,-4.32712 -3.38796,-7.29072 0.0557,-2.11022 0.56814,-3.9816 1.53745,-5.61414 0.57046,-0.98785 1.31947,-1.88063 2.24705,-2.67836 0.91365,-0.7977 2.00587,-1.45395 3.27665,-1.96878 1.25685,-0.49159 2.58792,-0.76754 3.9932,-0.82785 z m -2.39314,1.22439 c -2.22154,0.45917 -3.88421,1.4679 -4.98802,3.02621 -1.12237,1.55833 -1.7021,3.29521 -1.7392,5.21064 0.0186,0.19016 0.0765,0.71424 0.17392,1.57223 0.30146,1.65109 0.91829,3.09346 1.85051,4.32713 0.91365,1.25223 1.97804,2.23081 3.19317,2.93577 1.21511,0.7235 2.39312,1.18033 3.53405,1.37049 0.6261,0.0742 1.12003,0.12058 1.4818,0.13913 1.59541,0 3.1143,-0.3803 4.5567,-1.14091 1.44235,-0.76061 2.55312,-1.92935 3.3323,-3.50623 0.57044,-1.15482 0.85567,-2.50212 0.85569,-4.0419 -2e-5,-0.55189 -0.0371,-1.12235 -0.11131,-1.71137 -0.0789,-0.9322 -0.39308,-1.92006 -0.94265,-2.96359 -0.5496,-1.04351 -1.2534,-1.96412 -2.11138,-2.76185 -0.85339,-0.79769 -1.86908,-1.44468 -3.04708,-1.94095 -1.19658,-0.49159 -2.46968,-0.7374 -3.81928,-0.73742 -0.81628,2e-5 -1.55601,0.0742 -2.21922,0.22262 z"
         style=""
         id="path3101" />
      <path
         d="m 532.44487,398.86093 c -0.68641,-0.13448 -1.7021,-0.25738 -3.04708,-0.36871 l -0.11826,-0.39653 c 1.0667,0.0371 3.10968,0.0928 6.12893,0.16696 3.38099,-0.0556 5.73703,-0.15071 7.06811,-0.28523 l 0.31305,-1.93399 0.51481,-0.17392 c -0.0974,0.43598 -0.20409,1.54675 -0.32002,3.33231 -0.12987,1.78559 -0.1948,2.95433 -0.19479,3.50622 l -0.48697,-0.17392 c -2e-5,-0.4916 -0.0371,-1.24989 -0.11131,-2.27487 -2e-5,-0.0185 -2e-5,-0.0371 0,-0.0557 -2e-5,-0.28752 -0.90208,-0.5913 -2.70619,-0.91134 -1.95719,-0.32463 -3.42971,-0.48695 -4.41757,-0.48697 l -0.0557,0 c -0.13451,1.52124 -0.22958,3.32536 -0.28523,5.41239 0.0371,0.62612 0.0556,1.71834 0.0556,3.27665 0.2458,10e-6 0.50088,10e-6 0.76525,0 0.7977,0.0186 1.70209,-0.0186 2.71315,-0.11131 1.34497,-0.11594 2.22616,-0.25044 2.64358,-0.4035 l 0.45915,-1.64876 0.42436,0 c -0.12987,0.62613 -0.23422,1.57457 -0.31305,2.84533 -0.0742,1.27542 -0.12988,2.36996 -0.16696,3.28361 l -0.45915,-0.17392 0,-0.39654 c -2e-5,-0.26899 -0.0186,-0.63074 -0.0557,-1.08526 -0.0371,-0.4545 -0.0557,-0.75828 -0.0556,-0.91134 -0.11596,-0.19014 -0.72352,-0.37102 -1.82268,-0.54263 -1.12237,-0.17159 -2.24474,-0.25739 -3.36709,-0.2574 l -0.76525,0 c 0,4.46627 0.0765,7.57363 0.22958,9.32211 0.12985,0.0186 0.40348,0.0557 0.8209,0.1113 0.4174,0.0557 0.7977,0.10204 1.14091,0.13914 0.34319,0.0603 0.6864,0.0997 1.02961,0.11827 l 0.11131,0.45219 c -0.13451,0 -1.39833,-0.0371 -3.79146,-0.11131 -2.96359,0.0742 -4.62627,0.13218 -4.98802,0.17392 l 0.11827,-0.5148 c 0.36175,-0.0371 0.87423,-0.0858 1.53745,-0.1461 0.64466,-0.0557 1.14787,-0.12986 1.50962,-0.22261 0.0788,-2.75489 0.11826,-5.82284 0.11827,-9.20384 -10e-6,-2.45342 -0.058,-5.57006 -0.17392,-9.34994 z"
         style=""
         id="path3103" />
    </g>
    <path
       inkscape:connector-curvature="0"
       id="path3037"
       style="font-size:38.06053162px;font-style:normal;font-variant:normal;font-weight:normal;font-stretch:normal;line-height:125%;letter-spacing:0px;word-spacing:0px;fill:#000000;fill-opacity:1;stroke:none;font-family:Charlemagne;-inkscape-font-specification:Charlemagne"
       d="m 286.19491,603.17728 -0.13073,-0.46846 c 0.61003,0.0205 1.17906,0.0308 1.70707,0.0308 0.52289,0.0205 1.2457,0.0513 2.16844,0.0922 1.13292,-0.0409 1.98389,-0.0716 2.55292,-0.0922 0.54338,3e-5 1.1201,-0.0102 1.73013,-0.0308 l -0.0614,0.46846 c -0.23071,0.0205 -0.96634,0.16642 -2.20689,0.43776 0.8407,2.51902 1.8916,5.47706 3.15269,8.87411 1.26106,3.39708 2.22737,5.97624 2.89894,7.73749 0.0409,-0.0819 0.24092,-0.576 0.59978,-1.48222 0.3537,-0.88063 1.01499,-2.47292 1.98389,-4.77689 0.94323,-2.30908 1.81471,-4.47992 2.61443,-6.51254 0.77406,-2.03259 1.25593,-3.31258 1.44563,-3.83995 -0.88175,-0.2099 -1.64814,-0.35581 -2.29916,-0.43776 l -0.12304,-0.46846 c 0.56388,0.0205 1.09701,0.0308 1.59941,0.0308 0.48699,0.0205 1.10727,0.0513 1.86087,0.0922 2.52213,-0.0819 3.89855,-0.12286 4.12926,-0.12287 l -0.0615,0.46846 c -0.14869,2e-5 -0.51779,0.0423 -1.10728,0.12672 -0.58956,0.0845 -1.06118,0.18819 -1.41488,0.31104 0.71254,3.671 2.14023,10.47794 4.28306,20.42082 0.96372,0.27135 1.78136,0.40703 2.45294,0.40703 l 0.19225,0.56832 c -0.48192,-0.0462 -1.97367,-0.11009 -4.4753,-0.19201 -2.1377,0.0819 -3.61664,0.12289 -4.43683,0.12289 l 0.0614,-0.4992 c 1.9121,-0.16896 3.05527,-0.30463 3.42952,-0.40703 -0.14356,-1.0291 -0.364,-2.41404 -0.66129,-4.15482 -0.29223,-1.72029 -0.51267,-2.95676 -0.6613,-3.70939 -0.16408,-0.75774 -0.5101,-2.42683 -1.03809,-5.00729 -0.5229,-2.55483 -0.9202,-4.49271 -1.19187,-5.81366 l -8.06629,19.34562 -7.18199,-19.72962 -0.12303,0.0691 c -0.7587,3.33309 -1.47382,7.12695 -2.14536,11.38159 -0.56391,3.58908 -0.84586,5.9596 -0.84586,7.11158 0,0.20991 0.0103,0.37887 0.0308,0.50687 0.25119,0.0205 0.54339,0.0513 0.8766,0.0921 0.33834,0.041 0.6331,0.0716 0.8843,0.0922 0.23068,0.041 0.51518,0.0845 0.85353,0.13056 0.3332,0.0409 0.58439,0.0716 0.75357,0.0922 l 0.12304,0.49919 c -0.54341,0 -2.13769,-0.041 -4.78287,-0.12289 -0.58953,0.0205 -1.13548,0.0308 -1.63787,0.0308 -0.52801,0.0205 -1.10473,0.0513 -1.73013,0.0922 l 0.0614,-0.49919 c 0.18967,-0.0615 0.45111,-0.1152 0.78433,-0.16128 0.31782,-0.041 0.87403,-0.12288 1.66862,-0.24576 0.25118,-0.77823 0.88172,-3.65178 1.89161,-8.62067 1.00988,-4.96887 1.80703,-8.90225 2.39144,-11.80015 -0.67156,-0.18941 -1.60455,-0.33532 -2.79898,-0.43776 z" />
    <path
       inkscape:connector-curvature="0"
       id="path3039"
       style="font-size:38.06053162px;font-style:normal;font-variant:normal;font-weight:normal;font-stretch:normal;line-height:125%;letter-spacing:0px;word-spacing:0px;fill:#000000;fill-opacity:1;stroke:none;font-family:Charlemagne;-inkscape-font-specification:Charlemagne"
       d="m 313.49263,625.01121 0.0614,-0.56832 c 0.23068,0 0.71512,-0.064 1.45331,-0.19199 0.73307,-0.1024 1.15343,-0.17408 1.26108,-0.21504 0.14354,-0.18944 0.82533,-1.82526 2.04541,-4.90745 1.19443,-3.06171 2.40168,-6.19766 3.62175,-9.40787 1.19443,-3.21017 1.95056,-5.26581 2.26841,-6.16694 -0.7587,-0.14846 -1.61993,-0.27389 -2.58367,-0.37632 l 0,-0.53759 c 0.31269,0.0462 1.76088,0.1101 4.34456,0.192 2.50164,-0.0819 3.87805,-0.14589 4.12926,-0.192 l -0.13071,0.53759 c -0.58443,2e-5 -1.38157,0.12546 -2.39144,0.37632 0.88171,2.89277 2.24532,6.81463 4.09081,11.76559 1.83008,4.97145 3.02708,7.877 3.591,8.71667 0.0204,0.0205 0.46134,0.0934 1.32259,0.21887 0.8612,0.12544 1.32514,0.18816 1.39181,0.18816 l 0.0614,0.56832 c -0.27171,-0.0462 -1.86856,-0.11008 -4.79055,-0.19201 -2.39401,0.0819 -3.89347,0.12289 -4.49836,0.12289 l 0.18455,-0.4992 c 1.26106,-0.041 2.33246,-0.17664 3.21421,-0.40703 -1e-5,-0.10752 -0.4947,-1.59742 -1.48407,-4.4697 -0.98428,-2.87226 -1.602,-4.55929 -1.85317,-5.06105 -1.13294,2e-5 -3.67559,0.10242 -7.62799,0.3072 -0.12303,0.18945 -0.40499,1.00864 -0.84584,2.45757 -0.44087,1.44895 -0.85097,2.87485 -1.23032,4.2777 -0.33321,1.27998 -0.49982,2.07613 -0.49982,2.38844 0,0.0461 0,0.0793 0,0.0998 1.13292,0.27136 1.93006,0.40703 2.39143,0.40703 l 0.12304,0.4992 c -0.2717,0 -1.47895,-0.041 -3.62175,-0.12289 -2.49653,0.0819 -3.82938,0.14592 -3.99855,0.19201 z m 8.06629,-11.35856 c 0.79458,10e-6 1.92749,0.0103 3.39876,0.0308 1.47125,0.0205 2.6785,0.041 3.62176,0.0614 -2e-5,2e-5 -2e-5,2e-5 0,0 -2e-5,-0.0819 -0.54597,-1.68444 -1.63787,-4.8076 -1.13293,-3.16922 -1.7199,-4.79479 -1.76089,-4.87673 -0.12817,0.10242 -0.72795,1.58975 -1.79935,4.46201 -1.09192,2.8979 -1.69939,4.60794 -1.82241,5.13017 z" />
    <path
       inkscape:connector-curvature="0"
       id="path3041"
       style="font-size:38.06053162px;font-style:normal;font-variant:normal;font-weight:normal;font-stretch:normal;line-height:125%;letter-spacing:0px;word-spacing:0px;fill:#000000;fill-opacity:1;stroke:none;font-family:Charlemagne;-inkscape-font-specification:Charlemagne"
       d="m 337.83759,603.17728 -0.12303,-0.46846 c 0.90224,0.0205 1.72245,0.0308 2.46064,0.0308 0.71256,0.0205 1.6558,0.0513 2.82974,0.0922 1.05089,-0.0409 1.95312,-0.0716 2.7067,-0.0922 0.73818,3e-5 1.56865,-0.0102 2.4914,-0.0308 l -0.0614,0.46846 c -0.42037,0.041 -0.89457,0.0922 -1.42256,0.15361 -0.5229,0.087 -1.18419,0.18177 -1.9839,0.28415 -0.082,1.8483 -0.16404,4.57466 -0.24606,8.17909 0.082,4.65913 0.12303,8.03572 0.12304,10.12975 -1e-5,1.02911 -0.10511,1.94302 -0.31528,2.74173 -0.23068,0.79359 -0.54596,1.52574 -0.9458,2.19645 -0.39986,0.69118 -0.98683,1.52061 -1.7609,2.48828 -0.7792,0.98302 -1.73527,2.11452 -2.86818,3.39451 l -0.49982,-0.43775 c 0.94324,-1.13151 1.70963,-2.34749 2.29916,-3.64794 0.56389,-1.27999 0.97144,-2.60094 1.22263,-3.96284 0.23068,-1.36701 0.34602,-2.85691 0.34603,-4.46968 -10e-6,-1.76125 0.0102,-3.05148 0.0308,-3.87067 -10e-6,-0.79358 0.0128,-1.54876 0.0385,-2.26556 -10e-6,-0.69119 -10e-6,-1.47709 0,-2.35773 -10e-6,-1.48989 -0.0128,-2.79035 -0.0385,-3.90139 -0.041,-1.111 -0.0718,-2.51641 -0.0923,-4.21625 -1.0714,-0.16382 -2.46833,-0.30973 -4.19077,-0.43776 z" />
    <path
       inkscape:connector-curvature="0"
       id="path3043"
       style="font-size:38.06053162px;font-style:normal;font-variant:normal;font-weight:normal;font-stretch:normal;line-height:125%;letter-spacing:0px;word-spacing:0px;fill:#000000;fill-opacity:1;stroke:none;font-family:Charlemagne;-inkscape-font-specification:Charlemagne"
       d="m 363.43594,602.32482 c 0.42035,-0.0205 0.83045,-0.0307 1.23032,-0.0308 2.11717,3e-5 3.97546,0.33538 5.57489,1.00607 1.88647,0.81921 3.39618,1.97376 4.52911,3.46363 0.63052,0.81921 1.11368,1.75232 1.44948,2.79931 0.33574,1.04705 0.50363,2.17982 0.50366,3.39836 -3e-5,2.97468 -1.00735,5.68056 -3.02197,8.11764 -0.63056,0.77311 -1.43796,1.48478 -2.4222,2.13501 -1.00991,0.65023 -2.14539,1.15454 -3.40645,1.51294 -1.27647,0.37376 -2.58881,0.57343 -3.93703,0.59903 -0.23069,0 -0.46138,0 -0.69205,0 -3.37826,0 -6.13879,-0.90367 -8.28158,-2.711 -2.43501,-2.09405 -3.68328,-4.77689 -3.74479,-8.04852 0.0614,-2.32955 0.62797,-4.39545 1.69937,-6.19767 0.63054,-1.09053 1.45844,-2.07611 2.48372,-2.95676 1.00988,-0.88061 2.21713,-1.60508 3.62175,-2.17341 1.38923,-0.54268 2.86048,-0.84732 4.41377,-0.9139 z m -2.64519,1.35166 c -2.45552,0.50689 -4.2933,1.62047 -5.51336,3.34075 -1.24058,1.72031 -1.88138,3.63772 -1.92239,5.75224 0.0205,0.20992 0.0846,0.78847 0.19225,1.73564 0.3332,1.82272 1.015,3.415 2.0454,4.77689 1.00989,1.38239 2.18638,2.46269 3.52948,3.24092 1.3431,0.7987 2.64518,1.30302 3.90627,1.51294 0.69204,0.0819 1.23799,0.13311 1.63786,0.1536 1.76345,0 3.44232,-0.41984 5.03663,-1.25951 1.59427,-0.83966 2.82202,-2.12988 3.68327,-3.87066 0.63051,-1.27486 0.94578,-2.76219 0.9458,-4.46202 -2e-5,-0.60925 -0.041,-1.23901 -0.12303,-1.88925 -0.0872,-1.02909 -0.43448,-2.11963 -1.04192,-3.27163 -0.6075,-1.15196 -1.38542,-2.16827 -2.33376,-3.04891 -0.94328,-0.88061 -2.06594,-1.59484 -3.36801,-2.14269 -1.32261,-0.54269 -2.72978,-0.81405 -4.22154,-0.81408 -0.90224,3e-5 -1.71989,0.082 -2.45295,0.24577 z" />
    <path
       inkscape:connector-curvature="0"
       id="path3045"
       style="font-size:38.06053162px;font-style:normal;font-variant:normal;font-weight:normal;font-stretch:normal;line-height:125%;letter-spacing:0px;word-spacing:0px;fill:#000000;fill-opacity:1;stroke:none;font-family:Charlemagne;-inkscape-font-specification:Charlemagne"
       d="m 386.3891,613.87537 c 2.49652,0 4.25997,-0.2432 5.29038,-0.72959 0.98423,-0.41983 1.75062,-1.02653 2.29916,-1.82013 0.54338,-0.77822 0.8894,-1.66909 1.03808,-2.67261 0.0205,-0.23038 0.0307,-0.45054 0.0308,-0.66046 -1e-5,-1.61788 -0.78691,-2.76219 -2.36068,-3.43291 -1.78398,-0.75262 -3.84219,-1.14941 -6.17467,-1.19039 -0.082,2.43199 -0.12304,5.93401 -0.12303,10.50609 z m 0,0.81406 c -10e-6,1.46943 -0.0231,2.63421 -0.0692,3.49435 0.0256,0.48128 0.0486,0.96255 0.0692,1.44382 0.0205,0.48127 0.041,0.96512 0.0615,1.4515 -1e-5,0.50176 0.0102,0.99327 0.0308,1.47454 0.0205,0.48128 0.0307,0.97535 0.0308,1.48222 0.16916,0.041 0.74588,0.11264 1.73014,0.21504 0.96887,0.10752 1.49432,0.17151 1.57635,0.19199 l 0.12303,0.4992 c -0.75358,-0.041 -1.47639,-0.0716 -2.16844,-0.0922 -0.71257,0 -1.47895,-0.0103 -2.29915,-0.0308 -3.27574,0.0819 -4.95718,0.12289 -5.04432,0.12289 l 0.13072,-0.4992 c 1.99414,-0.16896 3.0963,-0.30463 3.30648,-0.40704 0.082,-0.75774 0.12303,-3.33818 0.12304,-7.74132 -10e-6,-6.9426 -0.041,-11.18957 -0.12304,-12.74093 -0.44086,-0.0614 -0.96631,-0.12286 -1.57634,-0.18432 -0.63055,-0.0666 -1.22777,-0.13053 -1.79166,-0.192 l -0.0692,-0.46847 5.76713,0 c 1.80446,2e-5 3.34748,0.0308 4.62907,0.0922 1.28157,0.0819 2.42731,0.24833 3.43721,0.49919 0.79457,0.20994 1.4328,0.51458 1.91469,0.91391 0.46647,0.39938 0.82531,0.86016 1.07653,1.38237 0.23067,0.52738 0.34601,1.05218 0.34603,1.57438 -2e-5,1.11104 -0.43064,2.21183 -1.29184,3.30235 -0.86124,1.11104 -1.86856,2.04543 -3.02198,2.80317 0.90223,1.61278 2.35041,3.88859 4.34457,6.82741 1.99413,2.93372 3.39105,4.74617 4.19079,5.43736 l -1.35335,0.13057 c -0.29736,-0.25601 -0.96122,-0.93951 -1.99159,-2.05054 -1.02529,-1.11101 -2.31455,-2.57788 -3.86782,-4.40057 -1.57892,-1.80221 -2.92459,-3.37402 -4.03699,-4.71546 -0.5434,0.041 -1.13036,0.0717 -1.76089,0.0922 -0.65106,0.0205 -1.45845,0.0513 -2.42219,0.0922 z" />
    <path
       inkscape:connector-curvature="0"
       id="path3047"
       style="font-size:38.06053162px;font-style:normal;font-variant:normal;font-weight:normal;font-stretch:normal;line-height:125%;letter-spacing:0px;word-spacing:0px;fill:#000000;fill-opacity:1;stroke:none;font-family:Charlemagne;-inkscape-font-specification:Charlemagne"
       d="m 400.2302,625.01121 0.0614,-0.56832 c 0.23069,0 0.71512,-0.064 1.45331,-0.19199 0.73306,-0.1024 1.15343,-0.17408 1.26108,-0.21504 0.14353,-0.18944 0.82534,-1.82526 2.04541,-4.90745 1.19443,-3.06171 2.40169,-6.19766 3.62176,-9.40787 1.19442,-3.21017 1.95056,-5.26581 2.26839,-6.16694 -0.7587,-0.14846 -1.61992,-0.27389 -2.58366,-0.37632 l 0,-0.53759 c 0.3127,0.0462 1.76088,0.1101 4.34457,0.192 2.50163,-0.0819 3.87805,-0.14589 4.12926,-0.192 l -0.13073,0.53759 c -0.58441,2e-5 -1.38156,0.12546 -2.39143,0.37632 0.88172,2.89277 2.24532,6.81463 4.09081,11.76559 1.83009,4.97145 3.02708,7.877 3.591,8.71667 0.0205,0.0205 0.46135,0.0934 1.3226,0.21887 0.8612,0.12544 1.32513,0.18816 1.39179,0.18816 l 0.0615,0.56832 c -0.27172,-0.0462 -1.86858,-0.11008 -4.79056,-0.19201 -2.39401,0.0819 -3.89347,0.12289 -4.49837,0.12289 l 0.18455,-0.4992 c 1.26107,-0.041 2.33247,-0.17664 3.21421,-0.40703 -1e-5,-0.10752 -0.4947,-1.59742 -1.48407,-4.4697 -0.98427,-2.87226 -1.60199,-4.55929 -1.85317,-5.06105 -1.13293,2e-5 -3.67559,0.10242 -7.62798,0.3072 -0.12304,0.18945 -0.40499,1.00864 -0.84585,2.45757 -0.44086,1.44895 -0.85097,2.87485 -1.23032,4.2777 -0.33321,1.27998 -0.49981,2.07613 -0.49981,2.38844 0,0.0461 0,0.0793 0,0.0998 1.13291,0.27136 1.93005,0.40703 2.39142,0.40703 l 0.12305,0.4992 c -0.27171,0 -1.47896,-0.041 -3.62176,-0.12289 -2.49652,0.0819 -3.82938,0.14592 -3.99854,0.19201 z m 8.06628,-11.35856 c 0.79458,10e-6 1.9275,0.0103 3.39876,0.0308 1.47126,0.0205 2.6785,0.041 3.62176,0.0614 -2e-5,2e-5 -2e-5,2e-5 0,0 -2e-5,-0.0819 -0.54597,-1.68444 -1.63787,-4.8076 -1.13293,-3.16922 -1.71989,-4.79479 -1.76089,-4.87673 -0.12816,0.10242 -0.72796,1.58975 -1.79935,4.46201 -1.09191,2.8979 -1.69937,4.60794 -1.82241,5.13017 z" />
    <path
       inkscape:connector-curvature="0"
       id="path3049"
       style="font-size:38.06053162px;font-style:normal;font-variant:normal;font-weight:normal;font-stretch:normal;line-height:125%;letter-spacing:0px;word-spacing:0px;fill:#000000;fill-opacity:1;stroke:none;font-family:Charlemagne;-inkscape-font-specification:Charlemagne"
       d="m 426.22918,602.6667 c 0.0667,2e-5 0.28708,-1.10333 0.6613,-3.31003 0.37935,-2.17595 0.6331,-3.77848 0.76126,-4.8076 1.3636,0.52224 2.18125,0.84737 2.45295,0.97534 -0.37935,0.56321 -0.80996,1.35936 -1.29183,2.38844 -0.48188,1.02913 -0.91249,2.02495 -1.29184,2.98747 -0.37423,0.96769 -0.59466,1.53344 -0.6613,1.69726 -0.082,2e-5 -0.17685,2e-5 -0.28451,0 -0.10252,0.0205 -0.21787,0.0436 -0.34603,0.0691 z" />
    <path
       inkscape:connector-curvature="0"
       id="path3051"
       style="font-size:38.06053162px;font-style:normal;font-variant:normal;font-weight:normal;font-stretch:normal;line-height:125%;letter-spacing:0px;word-spacing:0px;fill:#000000;fill-opacity:1;stroke:none;font-family:Charlemagne;-inkscape-font-specification:Charlemagne"
       d="m 448.86863,608.71448 -0.69205,-0.192 0,-0.78334 c -10e-6,-0.73213 -0.0525,-1.32989 -0.15763,-1.79326 -0.10511,-0.46333 -0.33452,-0.87165 -0.68822,-1.22494 -0.92275,-1.04957 -2.17358,-1.57435 -3.75247,-1.57437 -1.02528,2e-5 -1.92752,0.25089 -2.70671,0.75262 -0.77408,0.50177 -1.2252,1.16225 -1.35335,1.98141 -10e-6,0.29698 -0.0205,0.55041 -0.0614,0.76031 0.0205,0.73217 0.26144,1.39264 0.72282,1.98142 0.46137,0.60416 1.20724,1.23134 2.23765,1.88157 2.30684,1.38751 4.09079,2.68797 5.35188,3.90138 1.1329,1.11103 1.69936,2.50621 1.69938,4.18553 -2e-5,0.14849 -2e-5,0.29441 0,0.43776 -0.082,1.9507 -0.86892,3.48156 -2.36067,4.59257 -1.49178,1.13663 -3.24499,1.70494 -5.25962,1.70494 -1.57379,0 -3.04248,-0.25344 -4.40609,-0.76032 -0.29733,1.27999 -0.53057,2.37053 -0.69974,3.27164 l -0.59209,0.192 c 0.14354,-1.07007 0.28964,-2.44477 0.4383,-4.1241 0.10252,-1.44381 0.15379,-3.13083 0.15379,-5.06105 0,-0.31742 0,-0.64254 0,-0.97534 l 0.63054,0.18431 c 0,1.93022 0.0743,3.04381 0.223,3.34076 0.46136,0.92159 1.14316,1.65501 2.0454,2.20028 0.90223,0.54528 1.88905,0.84863 2.96046,0.91007 1.34309,0 2.50933,-0.40831 3.49872,-1.22494 0.98937,-0.81663 1.48407,-1.87518 1.48408,-3.17563 -10e-6,-1.19806 -0.35886,-2.20669 -1.07654,-3.02587 -0.71256,-0.79359 -1.83523,-1.69342 -3.36799,-2.69949 -1.53278,-1.00606 -2.43502,-1.62684 -2.70671,-1.86237 -1.8096,-1.48477 -2.71439,-3.07706 -2.71439,-4.77689 0,-1.11101 0.30501,-2.07611 0.91505,-2.89532 0.61003,-0.81917 1.40974,-1.44892 2.39912,-1.88926 0.96375,-0.4198 1.98132,-0.62972 3.05274,-0.62974 1.84546,2e-5 3.29365,0.30465 4.34457,0.9139 0.27167,-1.36187 0.46135,-2.27322 0.56902,-2.73403 l 0.59978,-0.13056 c -0.42038,2.95934 -0.66388,5.73945 -0.7305,8.34035 z" />
    <path
       inkscape:connector-curvature="0"
       id="path3053"
       style="font-size:38.06053162px;font-style:normal;font-variant:normal;font-weight:normal;font-stretch:normal;line-height:125%;letter-spacing:0px;word-spacing:0px;fill:#000000;fill-opacity:1;stroke:none;font-family:Charlemagne;-inkscape-font-specification:Charlemagne"
       d="m 473.43581,603.17728 -0.13071,-0.46846 c 0.61002,0.0205 1.17904,0.0308 1.70706,0.0308 0.52287,0.0205 1.24569,0.0513 2.16844,0.0922 1.1329,-0.0409 1.98388,-0.0716 2.55291,-0.0922 0.54338,3e-5 1.12009,-0.0102 1.73014,-0.0308 l -0.0614,0.46846 c -0.2307,0.0205 -0.96632,0.16642 -2.20689,0.43776 0.84072,2.51902 1.89161,5.47706 3.15269,8.87411 1.26107,3.39708 2.22739,5.97624 2.89895,7.73749 0.0409,-0.0819 0.24092,-0.576 0.59978,-1.48222 0.3537,-0.88063 1.015,-2.47292 1.98389,-4.77689 0.94322,-2.30908 1.8147,-4.47992 2.61444,-6.51254 0.77405,-2.03259 1.25592,-3.31258 1.44562,-3.83995 -0.88176,-0.2099 -1.64814,-0.35581 -2.29916,-0.43776 l -0.12303,-0.46846 c 0.56387,0.0205 1.09702,0.0308 1.59942,0.0308 0.48697,0.0205 1.10726,0.0513 1.86085,0.0922 2.52213,-0.0819 3.89855,-0.12286 4.12927,-0.12287 l -0.0614,0.46846 c -0.14869,2e-5 -0.51779,0.0423 -1.10729,0.12672 -0.58955,0.0845 -1.06118,0.18819 -1.41487,0.31104 0.71254,3.671 2.14022,10.47794 4.28306,20.42082 0.96372,0.27135 1.78137,0.40703 2.45295,0.40703 l 0.19223,0.56832 c -0.4819,-0.0462 -1.97367,-0.11009 -4.47529,-0.19201 -2.1377,0.0819 -3.61665,0.12289 -4.43684,0.12289 l 0.0615,-0.4992 c 1.91209,-0.16896 3.05526,-0.30463 3.42951,-0.40703 -0.14356,-1.0291 -0.36399,-2.41404 -0.6613,-4.15482 -0.29222,-1.72029 -0.51265,-2.95676 -0.66129,-3.70939 -0.16406,-0.75774 -0.51009,-2.42683 -1.03808,-5.00729 -0.52291,-2.55483 -0.9202,-4.49271 -1.19188,-5.81366 l -8.06628,19.34562 -7.18199,-19.72962 -0.12304,0.0691 c -0.7587,3.33309 -1.47383,7.12695 -2.14537,11.38159 -0.56391,3.58908 -0.84585,5.9596 -0.84584,7.11158 -1e-5,0.20991 0.0102,0.37887 0.0308,0.50687 0.25119,0.0205 0.5434,0.0513 0.87662,0.0921 0.33832,0.041 0.63309,0.0716 0.88429,0.0922 0.23068,0.041 0.51519,0.0845 0.85353,0.13056 0.3332,0.0409 0.58439,0.0716 0.75357,0.0922 l 0.12303,0.49919 c -0.5434,0 -2.13768,-0.041 -4.78286,-0.12289 -0.58954,0.0205 -1.13549,0.0308 -1.63787,0.0308 -0.52801,0.0205 -1.10473,0.0513 -1.73014,0.0922 l 0.0615,-0.49919 c 0.18967,-0.0615 0.45111,-0.1152 0.78432,-0.16128 0.31783,-0.041 0.87404,-0.12288 1.66862,-0.24576 0.25119,-0.77823 0.88173,-3.65178 1.89162,-8.62067 1.00989,-4.96887 1.80703,-8.90225 2.39143,-11.80015 -0.67156,-0.18941 -1.60454,-0.33532 -2.79898,-0.43776 z" />
    <path
       inkscape:connector-curvature="0"
       id="path3055"
       style="font-size:38.06053162px;font-style:normal;font-variant:normal;font-weight:normal;font-stretch:normal;line-height:125%;letter-spacing:0px;word-spacing:0px;fill:#000000;fill-opacity:1;stroke:none;font-family:Charlemagne;-inkscape-font-specification:Charlemagne"
       d="m 500.73354,625.01121 0.0614,-0.56832 c 0.2307,0 0.71513,-0.064 1.45332,-0.19199 0.73306,-0.1024 1.15342,-0.17408 1.26108,-0.21504 0.14353,-0.18944 0.82534,-1.82526 2.0454,-4.90745 1.19443,-3.06171 2.40169,-6.19766 3.62176,-9.40787 1.19443,-3.21017 1.95056,-5.26581 2.2684,-6.16694 -0.7587,-0.14846 -1.61992,-0.27389 -2.58367,-0.37632 l 0,-0.53759 c 0.31271,0.0462 1.76089,0.1101 4.34458,0.192 2.50163,-0.0819 3.87804,-0.14589 4.12925,-0.192 l -0.13072,0.53759 c -0.58441,2e-5 -1.38156,0.12546 -2.39143,0.37632 0.88171,2.89277 2.24532,6.81463 4.09081,11.76559 1.83008,4.97145 3.02708,7.877 3.591,8.71667 0.0205,0.0205 0.46135,0.0934 1.32259,0.21887 0.8612,0.12544 1.32514,0.18816 1.3918,0.18816 l 0.0614,0.56832 c -0.27172,-0.0462 -1.86858,-0.11008 -4.79056,-0.19201 -2.39401,0.0819 -3.89347,0.12289 -4.49836,0.12289 l 0.18455,-0.4992 c 1.26106,-0.041 2.33247,-0.17664 3.21421,-0.40703 -2e-5,-0.10752 -0.4947,-1.59742 -1.48407,-4.4697 -0.98427,-2.87226 -1.602,-4.55929 -1.85317,-5.06105 -1.13294,2e-5 -3.67559,0.10242 -7.62799,0.3072 -0.12304,0.18945 -0.40498,1.00864 -0.84584,2.45757 -0.44087,1.44895 -0.85097,2.87485 -1.23032,4.2777 -0.33321,1.27998 -0.49982,2.07613 -0.49982,2.38844 0,0.0461 0,0.0793 0,0.0998 1.13292,0.27136 1.93006,0.40703 2.39143,0.40703 l 0.12304,0.4992 c -0.2717,0 -1.47895,-0.041 -3.62175,-0.12289 -2.49653,0.0819 -3.82938,0.14592 -3.99855,0.19201 z m 8.06629,-11.35856 c 0.79457,10e-6 1.92749,0.0103 3.39876,0.0308 1.47125,0.0205 2.6785,0.041 3.62176,0.0614 -2e-5,2e-5 -2e-5,2e-5 0,0 -2e-5,-0.0819 -0.54597,-1.68444 -1.63788,-4.8076 -1.13292,-3.16922 -1.71989,-4.79479 -1.76089,-4.87673 -0.12816,0.10242 -0.72795,1.58975 -1.79934,4.46201 -1.09191,2.8979 -1.69938,4.60794 -1.82241,5.13017 z" />
    <path
       inkscape:connector-curvature="0"
       id="path3057"
       style="font-size:38.06053162px;font-style:normal;font-variant:normal;font-weight:normal;font-stretch:normal;line-height:125%;letter-spacing:0px;word-spacing:0px;fill:#000000;fill-opacity:1;stroke:none;font-family:Charlemagne;-inkscape-font-specification:Charlemagne"
       d="m 538.87346,608.71448 -0.69205,-0.192 0,-0.78334 c -2e-5,-0.73213 -0.0525,-1.32989 -0.15764,-1.79326 -0.10511,-0.46333 -0.33451,-0.87165 -0.68821,-1.22494 -0.92276,-1.04957 -2.17357,-1.57435 -3.75248,-1.57437 -1.02527,2e-5 -1.92751,0.25089 -2.7067,0.75262 -0.77408,0.50177 -1.2252,1.16225 -1.35335,1.98141 -10e-6,0.29698 -0.0205,0.55041 -0.0614,0.76031 0.0205,0.73217 0.26142,1.39264 0.72281,1.98142 0.46136,0.60416 1.20724,1.23134 2.23764,1.88157 2.30684,1.38751 4.09081,2.68797 5.35189,3.90138 1.13291,1.11103 1.69937,2.50621 1.69939,4.18553 -2e-5,0.14849 -2e-5,0.29441 0,0.43776 -0.082,1.9507 -0.86894,3.48156 -2.36068,4.59257 -1.49178,1.13663 -3.24498,1.70494 -5.25962,1.70494 -1.5738,0 -3.04249,-0.25344 -4.40609,-0.76032 -0.29733,1.27999 -0.53058,2.37053 -0.69974,3.27164 l -0.59208,0.192 c 0.14352,-1.07007 0.28963,-2.44477 0.43829,-4.1241 0.10253,-1.44381 0.15379,-3.13083 0.15379,-5.06105 0,-0.31742 0,-0.64254 0,-0.97534 l 0.63054,0.18431 c 0,1.93022 0.0743,3.04381 0.223,3.34076 0.46136,0.92159 1.14316,1.65501 2.04541,2.20028 0.90222,0.54528 1.88904,0.84863 2.96045,0.91007 1.34309,0 2.50933,-0.40831 3.49872,-1.22494 0.98937,-0.81663 1.48407,-1.87518 1.48407,-3.17563 0,-1.19806 -0.35885,-2.20669 -1.07652,-3.02587 -0.71258,-0.79359 -1.83524,-1.69342 -3.368,-2.69949 -1.53279,-1.00606 -2.43502,-1.62684 -2.70671,-1.86237 -1.80959,-1.48477 -2.71439,-3.07706 -2.71439,-4.77689 0,-1.11101 0.30501,-2.07611 0.91504,-2.89532 0.61004,-0.81917 1.40974,-1.44892 2.39913,-1.88926 0.96375,-0.4198 1.98132,-0.62972 3.05274,-0.62974 1.84546,2e-5 3.29366,0.30465 4.34456,0.9139 0.27169,-1.36187 0.46136,-2.27322 0.56902,-2.73403 l 0.59978,-0.13056 c -0.42037,2.95934 -0.66387,5.73945 -0.7305,8.34035 z" />
    <path
       inkscape:connector-curvature="0"
       id="path3059"
       style="font-size:38.06053162px;font-style:normal;font-variant:normal;font-weight:normal;font-stretch:normal;line-height:125%;letter-spacing:0px;word-spacing:0px;fill:#000000;fill-opacity:1;stroke:none;font-family:Charlemagne;-inkscape-font-specification:Charlemagne"
       d="m 549.45419,614.75087 c 0,5.11994 0.0409,8.25589 0.12305,9.40786 0.75868,0.128 1.38922,0.20225 1.89161,0.22272 0.48186,0.041 1.05858,0.10241 1.73013,0.18431 l 0.0615,0.50688 c -0.16404,-0.0205 -0.47675,-0.0409 -0.93812,-0.0615 -0.48701,0 -1.02271,-0.0128 -1.6071,-0.0385 -0.58954,0 -1.07398,-0.0103 -1.45331,-0.0308 -3.35776,0.087 -5.30063,0.13055 -5.82865,0.13055 l 0.13073,-0.50687 c 1.99414,-0.23039 3.0963,-0.38655 3.30648,-0.46847 0.0615,-2.30908 0.11277,-4.3852 0.15379,-6.22839 0.0256,-1.84828 0.0385,-3.65306 0.0385,-5.41431 0,-4.21369 -0.064,-7.11669 -0.19223,-8.709 -0.42037,-0.10749 -1.54303,-0.27646 -3.36801,-0.50687 l -0.0692,-0.46848 c 0.90737,0.041 2.41963,0.10242 4.53681,0.18432 1.00988,-0.0409 1.95569,-0.0819 2.83743,-0.12287 0.88171,-0.0204 1.59427,-0.0409 2.13768,-0.0615 l -0.12304,0.52992 c -0.44087,0.0205 -1.52253,0.14593 -3.24496,0.37631 -0.082,1.02913 -0.12305,4.31355 -0.12304,9.8533 0.71255,-0.58878 1.66733,-1.37598 2.86434,-2.36157 1.19699,-0.98557 2.2889,-1.89819 3.27573,-2.73788 0.9868,-0.83964 1.92107,-1.66908 2.80282,-2.48828 0.86121,-0.81405 1.57633,-1.5462 2.14537,-2.19645 -0.79973,-0.23038 -1.66095,-0.37885 -2.58367,-0.44543 l -0.13073,-0.52992 c 1.24056,0.0615 2.59648,0.1229 4.06776,0.18432 1.17391,-0.0614 2.40166,-0.12285 3.68326,-0.18432 l -0.19223,0.46848 c -0.35375,0.0614 -0.74078,0.1357 -1.16112,0.22271 -0.42038,0.0819 -0.7254,0.13314 -0.91505,0.1536 -0.63056,0.39938 -1.46102,0.99841 -2.49139,1.79709 -1.02529,0.81921 -2.10439,1.69984 -3.23729,2.64188 -1.13806,0.96257 -2.22997,1.88416 -3.27573,2.76477 6.52581,8.0946 11.03954,13.25548 13.54122,15.48265 l -1.29184,0.24575 c -1.03042,-0.75263 -2.312,-1.86365 -3.84475,-3.33306 -1.53279,-1.44894 -3.23217,-3.12572 -5.09814,-5.03033 -1.87112,-1.90972 -3.6474,-3.77593 -5.32883,-5.59864 -0.92274,0.5632 -1.86599,1.28511 -2.82973,2.16573 z" />
    <g
       transform="matrix(0.82008627,0,0,0.83399533,21.256027,105.47299)"
       style="font-size:11.85996342px;font-style:normal;font-variant:normal;font-weight:normal;font-stretch:normal;line-height:125%;letter-spacing:0px;word-spacing:0px;fill:#000000;fill-opacity:1;stroke:none;font-family:Charlemagne;-inkscape-font-specification:Charlemagne"
       id="text3073">
      <path
         d="m 671.37528,597.47426 c 0.1023,-1.14661 0.15346,-2.01236 0.15346,-2.59726 l 0,-0.3185 c 0.0154,0.008 0.0946,0.0193 0.23743,0.0347 0,0.33975 0.0241,0.60517 0.0724,0.79627 0.75861,0.0463 2.00754,0.0849 3.74677,0.11582 1.33579,-0.0232 2.71887,-0.0618 4.14925,-0.11582 0.0174,-0.0328 0.0492,-0.15153 0.0956,-0.35615 0.0482,-0.20654 0.0801,-0.3378 0.0956,-0.39379 0.0791,-0.0309 0.15442,-0.0463 0.22585,-0.0463 -0.0714,0.32431 -0.14671,0.8426 -0.22585,1.55489 -0.0792,0.71809 -0.13416,1.18812 -0.16504,1.4101 -0.0483,-0.008 -0.11969,-0.027 -0.21427,-0.0579 0.008,-0.14283 0.0154,-0.27796 0.0232,-0.40537 -10e-6,-0.11774 -10e-6,-0.28761 0,-0.5096 l 0,-0.3909 c -0.18146,-0.1023 -0.49321,-0.1853 -0.93525,-0.24901 -0.4517,-0.0637 -0.89857,-0.10712 -1.34061,-0.1303 -0.45171,-0.0231 -0.81944,-0.0347 -1.10319,-0.0347 -0.008,0.24516 -0.0154,0.6679 -0.0232,1.26823 -0.0174,0.60806 -0.0338,1.37536 -0.0492,2.30192 0.0328,2.16583 0.0569,3.52575 0.0724,4.07976 0.57716,0.0695 1.08677,0.12064 1.52882,0.15346 l 0.0492,0.1882 c -0.0792,-0.008 -0.2413,-0.0154 -0.48645,-0.0232 -0.25288,0 -0.53374,-0.004 -0.84259,-0.0116 -0.30885,0 -0.56173,-0.004 -0.75862,-0.0116 -0.1911,0.008 -0.43626,0.0116 -0.73545,0.0116 -0.30886,0.008 -0.58972,0.0116 -0.84259,0.0116 -0.25288,0.008 -0.42275,0.0154 -0.50961,0.0232 l 0.0695,-0.1882 c 0.88602,-0.0791 1.38791,-0.1303 1.50566,-0.15346 0.0328,-1.09257 0.0492,-2.50075 0.0492,-4.22454 0,-1.44581 -0.0164,-2.5876 -0.0492,-3.42537 -1.801,0.0232 -2.91963,0.16119 -3.35588,0.41405 -0.0386,0.10232 -0.11775,0.50576 -0.23743,1.21032 -0.11776,0.0309 -0.18435,0.0541 -0.19979,0.0695 z"
         id="path3078"
         inkscape:connector-curvature="0" />
      <path
         d="m 681.73248,595.56613 -0.0492,-0.17662 c 0.22971,0.008 0.44398,0.0116 0.6428,0.0116 0.19689,0.008 0.46907,0.0193 0.81653,0.0347 0.4266,-0.0154 0.74704,-0.027 0.96131,-0.0347 0.20461,10e-6 0.42177,-0.004 0.65149,-0.0116 l -0.0232,0.17662 c -0.0869,0.008 -0.36387,0.0627 -0.83101,0.16504 0.31657,0.94974 0.71229,2.06498 1.18716,3.34575 0.47486,1.28078 0.83872,2.25319 1.0916,2.91722 0.0154,-0.0309 0.0907,-0.21716 0.22585,-0.55883 0.13319,-0.33202 0.3822,-0.93235 0.74704,-1.801 0.35517,-0.87058 0.68333,-1.68904 0.98447,-2.45539 0.29147,-0.76633 0.47292,-1.24891 0.54435,-1.44775 -0.33202,-0.0791 -0.62061,-0.13415 -0.86575,-0.16504 l -0.0463,-0.17662 c 0.21233,0.008 0.41308,0.0116 0.60226,0.0116 0.18338,0.008 0.41695,0.0193 0.70072,0.0347 0.94971,-0.0309 1.468,-0.0463 1.55488,-0.0463 l -0.0232,0.17662 c -0.056,10e-6 -0.19497,0.0159 -0.41695,0.0478 -0.222,0.0319 -0.39959,0.0709 -0.53277,0.11726 0.26831,1.38406 0.8059,3.95043 1.61279,7.69914 0.36289,0.1023 0.67078,0.15346 0.92367,0.15346 l 0.0724,0.21426 c -0.18146,-0.0174 -0.74318,-0.0415 -1.68518,-0.0724 -0.80495,0.0309 -1.36185,0.0463 -1.6707,0.0463 l 0.0232,-0.1882 c 0.72,-0.0637 1.15046,-0.11486 1.29139,-0.15346 -0.0541,-0.388 -0.13707,-0.91015 -0.24901,-1.56647 -0.11004,-0.64859 -0.19305,-1.11476 -0.24902,-1.39852 -0.0618,-0.28569 -0.19208,-0.91498 -0.39089,-1.88787 -0.1969,-0.96323 -0.3465,-1.69386 -0.4488,-2.19189 l -3.03738,7.29376 -2.7044,-7.43854 -0.0463,0.0261 c -0.2857,1.25665 -0.55498,2.68703 -0.80785,4.29113 -0.21234,1.35317 -0.31851,2.24691 -0.3185,2.68123 -10e-6,0.0792 0.004,0.14285 0.0116,0.19111 0.0946,0.008 0.20461,0.0193 0.33009,0.0347 0.12739,0.0154 0.23839,0.027 0.33298,0.0348 0.0869,0.0154 0.19399,0.0318 0.3214,0.0492 0.12547,0.0154 0.22005,0.027 0.28376,0.0347 l 0.0463,0.1882 c -0.20461,0 -0.80495,-0.0154 -1.801,-0.0463 -0.22198,0.008 -0.42757,0.0116 -0.61674,0.0116 -0.19882,0.008 -0.41598,0.0193 -0.65148,0.0347 l 0.0232,-0.1882 c 0.0714,-0.0232 0.16987,-0.0434 0.29534,-0.0608 0.11968,-0.0154 0.32912,-0.0463 0.62832,-0.0927 0.0946,-0.29341 0.33202,-1.37681 0.7123,-3.2502 0.38027,-1.87338 0.68044,-3.35636 0.9005,-4.44894 -0.25288,-0.0714 -0.6042,-0.12642 -1.05396,-0.16504 z"
         id="path3080"
         inkscape:connector-curvature="0" />
    </g>
  </g>
</svg>
